# xmcd
#
# Track frame offsets: 
#        150
#        20954
#        32637
#        46255
#        54251
#        64096
#        83532
#        101730
#        117128
#        125978
#        143201
#        155877
#        171950
#        192658
#        210848
#        217774
#        234187
#        255615
#        266278
#        277764
#        293377
#        308250
#        312648
#
# Disc length: 4448 seconds
#
# Revision: 0
# Processed by: cddbd v1.5.1PL0 Copyright (c) Steve Scherf et al.
# Submitted via: ExactAudioCopy v0.95a3
#
DISCID=3e115e17
DTITLE=Holger Biege - Sampler 90'er Jahre
DYEAR=2003
DGENRE=Blues
TTITLE0=Meistens leb' ich still
TTITLE1=Meine H‰nde
TTITLE2=Du und ich
TTITLE3=Improvisation I
TTITLE4=Irrenhaus
TTITLE5=Sklavin
TTITLE6=Weiﬂes Licht
TTITLE7=Nun da ich geh
TTITLE8=Inprovisation II
TTITLE9=Brich mein Herz
TTITLE10=Und der Tag ist leis' gegangen
TTITLE11=Leiser ais laut
TTITLE12=Was ist los
TTITLE13=und ich steck in deiner Haut
TTITLE14=Improvisation III
TTITLE15=Unsere Zeit
TTITLE16=Und wir bau'n ein Haus
TTITLE17=Improvisation IV
TTITLE18=Gutenachtlied
TTITLE19=Robinson
TTITLE20=Schuld sind die anderen
TTITLE21=Vorspiel-Improvisation
TTITLE22=Sagte mal ein Dichter
EXTD=
EXTT0=
EXTT1=
EXTT2=
EXTT3=
EXTT4=
EXTT5=
EXTT6=
EXTT7=
EXTT8=
EXTT9=
EXTT10=
EXTT11=
EXTT12=
EXTT13=
EXTT14=
EXTT15=
EXTT16=
EXTT17=
EXTT18=
EXTT19=
EXTT20=
EXTT21=
EXTT22=
PLAYORDER=
